<?xml version="1.0" encoding="UTF-8" standalone="no"?>
<svg
   width="500"
   height="500"
   version="1.1"
   id="svg5"
   sodipodi:docname="noaa-logo.svg"
   inkscape:version="1.4.3 (0d15f75, 2025-12-25)"
   xmlns:inkscape="http://www.inkscape.org/namespaces/inkscape"
   xmlns:sodipodi="http://sodipodi.sourceforge.net/DTD/sodipodi-0.dtd"
   xmlns="http://www.w3.org/2000/svg"
   xmlns:svg="http://www.w3.org/2000/svg">
  <defs
     id="defs5" />
  <sodipodi:namedview
     id="namedview5"
     pagecolor="#ffffff"
     bordercolor="#000000"
     borderopacity="0.25"
     inkscape:showpageshadow="2"
     inkscape:pageopacity="0.0"
     inkscape:pagecheckerboard="0"
     inkscape:deskcolor="#d1d1d1"
     inkscape:zoom="1.71"
     inkscape:cx="250"
     inkscape:cy="290.35088"
     inkscape:window-width="1920"
     inkscape:window-height="1057"
     inkscape:window-x="3278"
     inkscape:window-y="-8"
     inkscape:window-maximized="1"
     inkscape:current-layer="svg5" />
  <path
     fill="#ffffff"
     d="m 246.72259,52 c 3.38326,0 6.76653,0.08098 10.14467,0.242924 3.37813,0.167009 6.75114,0.409932 10.11903,0.738892 3.36789,0.328959 6.72552,0.73383 10.07289,1.224738 3.34226,0.490908 6.67939,1.06279 9.99602,1.715646 3.31663,0.647795 6.61786,1.381626 9.89861,2.191371 3.28074,0.814805 6.54098,1.705524 9.78072,2.672157 3.2346,0.971693 6.4487,2.019301 9.63204,3.142822 3.18847,1.12858 6.34106,2.328013 9.46802,3.608423 3.12696,1.275347 6.21802,2.63167 9.27835,4.058844 3.05518,1.427175 6.07962,2.930263 9.06305,4.504204 2.98341,1.57394 5.92583,3.218734 8.82724,4.93438 2.90141,1.720708 5.75668,3.507206 8.57093,5.359496 2.81426,1.857352 5.57727,3.780495 8.29926,5.76943 2.71685,1.988934 5.38246,4.043661 7.9968,6.16418 2.61433,2.115453 5.17742,4.296703 7.68412,6.543743 2.50668,2.24198 4.95699,4.5447 7.34577,6.90814 2.39392,2.35838 4.72632,4.77749 6.99721,7.25227 2.27089,2.47478 4.48027,5.00523 6.62812,7.58629 2.14786,2.58107 4.22908,5.21274 6.24367,7.89501 2.01457,2.68228 3.96251,5.41516 5.84381,8.19361 1.87618,2.77337 3.68572,5.59736 5.42861,8.46183 1.73777,2.86446 3.40377,5.76942 4.998,8.71487 1.59424,2.94545 3.1167,5.93137 4.56229,8.94768 1.44557,3.02136 2.81937,6.07308 4.11118,9.16023 1.29691,3.08714 2.5118,6.19961 3.65495,9.34749 1.13799,3.14281 2.19912,6.31094 3.18334,9.50943 0.97909,3.1985 1.8813,6.41217 2.70148,9.6562 0.82532,3.23898 1.56348,6.49821 2.22475,9.7726 0.66128,3.27441 1.24054,6.564 1.73777,9.86877 0.49211,3.30477 0.90733,6.61966 1.24052,9.94468 0.33321,3.32501 0.57926,6.65508 0.7433,9.99022 0.16917,3.33514 0.25119,6.67532 0.25119,10.01553 0,3.34019 -0.082,6.67533 -0.25119,10.01046 -0.16404,3.34019 -0.41009,6.67028 -0.7433,9.99023 -0.33319,3.32501 -0.74841,6.6399 -1.24052,9.94467 -0.49723,3.30477 -1.07649,6.59435 -1.73777,9.86875 -0.66127,3.27442 -1.39943,6.53363 -2.22475,9.77261 -0.82018,3.24404 -1.72239,6.45771 -2.70148,9.6562 -0.98422,3.1985 -2.04535,6.36662 -3.18334,9.5145 -1.14315,3.14282 -2.35804,6.26034 -3.65495,9.34243 -1.29181,3.08716 -2.66561,6.13888 -4.11118,9.16024 -1.44559,3.01629 -2.96805,6.00223 -4.56229,8.94767 -1.59423,2.94545 -3.26023,5.8504 -4.998,8.71487 -1.74289,2.86448 -3.55243,5.68846 -5.42861,8.46184 -1.8813,2.77843 -3.82924,5.51132 -5.84381,8.1936 -2.01459,2.68227 -4.09581,5.31394 -6.24367,7.89501 -2.14785,2.58106 -4.35723,5.11151 -6.62812,7.5863 -2.27089,2.47477 -4.60329,4.89388 -6.99721,7.25733 -2.38878,2.35837 -4.83909,4.66109 -7.34577,6.90307 -2.5067,2.24704 -5.06979,4.42828 -7.68412,6.54375 -2.61434,2.12052 -5.27995,4.17524 -7.9968,6.16418 -2.72199,1.98894 -5.485,3.91207 -8.29926,5.76942 -2.81425,1.85736 -5.66952,3.63879 -8.57093,5.3595 -2.90141,1.71564 -5.84383,3.36044 -8.82724,4.93438 -2.98343,1.57901 -6.00787,3.07703 -9.06305,4.5042 -3.06033,1.43224 -6.15139,2.7835 -9.27835,4.06391 -3.12696,1.27534 -6.27955,2.47984 -9.46802,3.60336 -3.18334,1.12353 -6.39744,2.17113 -9.63204,3.14282 -3.23974,0.96663 -6.49998,1.85735 -9.78072,2.67216 -3.28075,0.80975 -6.58198,1.54358 -9.89861,2.19138 -3.31663,0.65284 -6.65376,1.22473 -9.99602,1.71563 -3.34737,0.49091 -6.705,0.89579 -10.07289,1.22475 -3.36789,0.32895 -6.7409,0.57187 -10.11903,0.73889 -3.37814,0.16195 -6.76141,0.24292 -10.14467,0.24292 -3.38327,0 -6.76141,-0.081 -10.13955,-0.24292 -3.38326,-0.16702 -6.75627,-0.40994 -10.12416,-0.73889 -3.36276,-0.32896 -6.72039,-0.73384 -10.06777,-1.22475 -3.34739,-0.4909 -6.67939,-1.06279 -9.996,-1.71563 -3.32176,-0.6478 -6.61788,-1.38163 -9.90375,-2.19138 -3.28075,-0.81481 -6.54098,-1.70553 -9.77559,-2.67216 -3.23973,-0.97169 -6.44871,-2.01929 -9.63718,-3.14282 -3.18334,-1.12352 -6.34105,-2.32802 -9.46287,-3.60336 -3.12697,-1.28041 -6.21803,-2.63167 -9.27836,-4.06391 -3.06031,-1.42717 -6.07962,-2.92519 -9.06305,-4.5042 -2.98341,-1.57394 -5.92583,-3.21874 -8.82724,-4.93438 -2.90141,-1.72071 -5.76179,-3.50214 -8.57606,-5.3595 -2.80914,-1.85735 -5.57725,-3.78048 -8.29412,-5.76942 -2.71687,-1.98894 -5.38248,-4.04366 -7.99682,-6.16418 -2.61946,-2.11547 -5.17742,-4.29671 -7.68411,-6.54375 -2.50668,-2.24198 -4.95699,-4.5447 -7.35091,-6.90307 -2.38879,-2.36345 -4.72119,-4.78256 -6.997204,-7.25733 -2.270892,-2.47479 -4.480255,-5.00524 -6.622986,-7.5863 -2.147866,-2.58107 -4.229092,-5.21274 -6.24367,-7.89501 -2.014578,-2.68228 -3.962524,-5.41517 -5.843814,-8.1936 -1.881298,-2.77338 -3.690837,-5.59736 -5.42861,-8.46184 -1.737765,-2.86447 -3.403763,-5.76942 -5.003129,-8.71487 -1.594231,-2.94544 -3.111578,-5.93138 -4.562275,-8.94767 -1.44558,-3.02136 -2.814265,-6.07308 -4.111183,-9.16024 -1.291792,-3.08209 -2.511818,-6.19961 -3.649824,-9.34243 -1.138007,-3.14788 -2.199122,-6.316 -3.183344,-9.5145 -0.984223,-3.19849 -1.886427,-6.41216 -2.706612,-9.6562 -0.820186,-3.23898 -1.563478,-6.49819 -2.224753,-9.77261 -0.656148,-3.2744 -1.235404,-6.56398 -1.732641,-9.86875 -0.497239,-3.30477 -0.912457,-6.61966 -1.240531,-9.94467 -0.3332,-3.31995 -0.579256,-6.65004 -0.748418,-9.99023 C 40.082019,262.77143 40,259.43629 40,256.0961 c 0,-3.34021 0.08202,-6.68039 0.246056,-10.01553 0.169162,-3.33514 0.415218,-6.66521 0.748418,-9.99022 0.328074,-3.32502 0.743292,-6.63991 1.240531,-9.94468 0.497237,-3.30477 1.076493,-6.59436 1.732641,-9.86877 0.661275,-3.27439 1.404568,-6.53362 2.224753,-9.7726 0.820185,-3.24403 1.722389,-6.4577 2.706612,-9.6562 0.984222,-3.19849 2.045337,-6.36662 3.183344,-9.50943 1.138006,-3.14788 2.358032,-6.26035 3.649824,-9.34749 1.296918,-3.08715 2.665603,-6.13887 4.111183,-9.16023 1.450697,-3.01631 2.968044,-6.00223 4.562275,-8.94768 1.599366,-2.94545 3.265364,-5.85041 5.003129,-8.71488 1.737773,-2.86447 3.547312,-5.68845 5.42861,-8.46182 1.88129,-2.77845 3.829236,-5.51133 5.843814,-8.19361 2.014578,-2.68227 4.095804,-5.31394 6.24367,-7.89501 2.142731,-2.58106 4.352094,-5.11151 6.622986,-7.58629 2.276014,-2.47478 4.608414,-4.89389 6.997204,-7.25228 2.39392,-2.36343 4.84423,-4.66615 7.35091,-6.90813 2.50669,-2.24704 5.06465,-4.42829 7.68411,-6.543743 2.61434,-2.120519 5.27995,-4.175246 7.99682,-6.16418 2.71687,-1.988935 5.48498,-3.912078 8.29412,-5.76943 2.81427,-1.85229 5.67465,-3.638788 8.57606,-5.359496 2.90141,-1.715646 5.84383,-3.36044 8.82724,-4.93438 2.98343,-1.573941 6.00274,-3.077029 9.06305,-4.504204 3.06033,-1.427174 6.15139,-2.783497 9.27836,-4.058844 3.12182,-1.28041 6.27953,-2.479843 9.46287,-3.608423 3.18847,-1.123521 6.39745,-2.171129 9.63718,-3.142822 3.23461,-0.966633 6.49484,-1.857352 9.77559,-2.672157 3.28587,-0.809745 6.58199,-1.543576 9.90375,-2.191371 3.31661,-0.652856 6.64861,-1.224738 9.996,-1.715647 3.34738,-0.490907 6.70501,-0.895778 10.07291,-1.224737 3.36275,-0.32896 6.73576,-0.571884 10.11902,-0.738892 C 239.96118,52.080975 243.33932,52 246.72259,52 Z m 0,0"
     id="path1"
     style="stroke-width:0.821621" />
  <path
     fill="#0085ca"
     d="m 397.5034,182.32838 c -23.99042,35.82106 -63.77966,85.51913 -109.97147,102.23529 l -5.88995,2.37863 c 1.09699,0.49091 2.25551,0.82492 3.44477,0.997 l 2.02997,0.081 c 0.93295,0.0557 1.90692,0.0658 2.9424,0 h 0.49211 c 11.73378,-0.45547 28.8244,-5.319 32.14102,6.45773 -38.92292,1.69033 -53.27616,11.15422 -66.79385,17.33864 -20.93009,11.54898 -47.47846,21.59993 -64.8459,5.54169 13.9124,-1.82193 39.57908,-10.19771 48.637,-18.26986 -73.6424,-0.98181 -106.32165,-46.19085 -129.22021,-70.94373 -8.24286,-9.35762 -16.701017,-17.43988 -25.415482,-18.12816 -20.848091,71.35367 8.811866,147.70751 72.642782,187.00037 63.83093,39.29284 146.32619,31.98491 202.05265,-17.90549 55.72648,-49.88531 71.14083,-130.23221 37.75416,-196.78307 z m 0,0"
     id="path2"
     style="stroke-width:0.821621" />
  <path
     fill="#003087"
     d="m 201.67903,261.65802 c 32.85354,30.19335 64.159,40.04186 96.74598,-5.05584 24.82087,-31.00309 38.65124,-93.62164 81.9519,-101.39519 C 347.90783,113.30272 297.21012,89.106541 243.77504,90.027626 190.3451,90.948709 140.52909,116.86559 109.56198,159.86809 c 34.81686,18.199 59.35577,72.25451 92.11705,101.78993 z m 0,0"
     id="path3"
     style="stroke-width:0.821621" />
  <path
     fill="#003087"
     d="m 438.64083,296.33533 -0.6664,2.62155 -15.48101,4.8939 13.43054,3.28452 -0.528,2.12053 -16.58824,-4.06898 0.62027,-2.48995 15.45023,-5.02042 -13.42028,-3.2896 0.53825,-2.12052 z m 0,0 m -1.30717,-6.03766 c -1.85055,0.92616 -3.96252,1.21968 -6.00273,0.84012 -2.2709,-0.24799 -4.39313,-1.23486 -6.02836,-2.81386 -1.57374,-1.80676 -2.3119,-4.18031 -2.03509,-6.54881 0.2768,-2.36851 1.54297,-4.51433 3.49604,-5.9162 2.00432,-1.09821 4.3316,-1.47778 6.58711,-1.06785 2.10172,0.23787 4.0753,1.12352 5.63365,2.53046 1.87104,1.74095 2.70148,4.30682 2.20425,6.79678 -0.16916,2.56588 -1.60963,4.87872 -3.85487,6.17936 z m -10.49326,-3.54769 c 1.37382,1.12353 3.03982,1.83711 4.81347,2.04966 1.72752,0.33908 3.52168,0.0404 5.03902,-0.85023 1.38406,-0.88059 2.28114,-2.33812 2.44518,-3.95256 0.30756,-1.60431 -0.11273,-3.26428 -1.14826,-4.53457 -1.32768,-1.40693 -3.14747,-2.26222 -5.08515,-2.40393 -1.69164,-0.30365 -3.43453,-0.0456 -4.96212,0.72877 -1.53273,0.91097 -2.51183,2.51528 -2.6041,4.28153 -0.41521,1.71565 0.16404,3.51732 1.50196,4.68133 z m 0,0 m 15.42975,-16.89836 -0.1743,2.26729 -17.08035,-1.27029 0.18454,-2.26729 z m 0,0 m 0.34344,-3.47683 h -2.0402 l 0.10249,-5.66821 -15.08628,-0.26317 v -2.26223 l 15.08628,0.24799 0.10249,-5.66821 h 2.0402 z m 0,0 m -0.26142,-22.84998 0.15891,2.57095 -16.73692,7.12068 -0.14866,-2.50514 5.01852,-2.04968 -0.39471,-6.62977 -5.23381,-1.53346 -0.13841,-2.34319 z m -9.86274,4.37768 7.40218,-3.0416 -7.70974,-2.26222 z m 0,0 m 6.98183,-27.69832 1.14826,7.59136 c 0.19993,1.05772 0.16916,2.14076 -0.0923,3.1833 -0.46134,1.63973 -1.9223,2.80881 -3.63957,2.91509 -0.86632,0.17207 -1.7634,0.0911 -2.58358,-0.23788 -0.69203,-0.33908 -1.28154,-0.8401 -1.7224,-1.46259 -0.12296,0.60731 -0.41009,1.16907 -0.8253,1.62961 -0.58439,0.48078 -1.29179,0.78444 -2.04534,0.87553 l -2.29653,0.42006 c -0.48697,0.0759 -0.96371,0.20751 -1.41993,0.38463 -0.4306,0.13159 -0.77405,0.46054 -0.92271,0.8806 l -0.37421,0.0607 -0.43572,-2.77843 c 0.16403,-0.11635 0.34345,-0.2075 0.53824,-0.2733 0.4306,-0.12657 0.87145,-0.2328 1.31742,-0.31884 l 2.80401,-0.55164 c 0.91758,-0.086 1.71214,-0.67814 2.04022,-1.53344 0.14352,-0.66298 0.14352,-1.35127 0,-2.01424 l -0.77918,-5.01031 -7.25353,1.13365 -0.35881,-2.26729 z m -6.61274,8.52256 c 0.0871,0.87047 0.44597,1.69034 1.0201,2.35332 0.68179,0.57188 1.60449,0.77937 2.46569,0.5567 1.03036,-0.0456 1.93768,-0.68829 2.29652,-1.64479 0.16916,-0.60226 0.19479,-1.23486 0.0718,-1.84723 l -0.8407,-5.37975 -5.73617,0.87049 z m 0,0 m 5.94634,-12.11581 -1.98894,0.47573 -1.36357,-5.53156 -14.66081,3.54769 -0.5485,-2.26729 14.63518,-3.52238 -1.36868,-5.54169 1.9787,-0.47572 z m 0,0 m -18.22861,-21.63536 c -0.78431,0.27329 -1.49171,0.73384 -2.04535,1.34621 -0.87144,1.23486 -1.0201,2.83411 -0.38958,4.20561 0.22555,0.73383 0.58951,1.42211 1.06624,2.02942 0.63052,1.04254 1.90693,1.51827 3.0757,1.13365 0.75355,-0.17208 1.36355,-0.70347 1.6301,-1.41706 0.21019,-0.9312 0.25119,-1.88771 0.12821,-2.8341 l -0.19479,-2.26728 c -0.1589,-1.08811 -0.12296,-2.19645 0.10249,-3.27442 0.33832,-1.21967 1.30716,-2.17618 2.5477,-2.50514 1.34305,-0.47573 2.82963,-0.36946 4.08555,0.29859 1.37893,0.81987 2.37854,2.14076 2.77837,3.67928 0.53312,1.45754 0.58439,3.04666 0.14866,4.53457 -0.52799,1.50309 -1.79928,2.63673 -3.37302,3.00112 l -0.67664,-2.04967 c 0.69716,-0.28341 1.30716,-0.73383 1.77878,-1.31584 0.64588,-1.10328 0.71766,-2.44442 0.19478,-3.61348 -0.22042,-0.98688 -0.83556,-1.84723 -1.69675,-2.38875 -0.6664,-0.36438 -1.45069,-0.43017 -2.1735,-0.19737 -0.73304,0.19231 -1.29178,0.78443 -1.43019,1.52333 -0.10249,1.03748 -0.082,2.08003 0.0564,3.11245 l 0.19479,2.35838 c 0.11785,0.92615 0.0409,1.86748 -0.22043,2.76831 -0.45622,1.26018 -1.51222,2.21668 -2.82452,2.56082 -1.51733,0.63262 -3.27047,0.37452 -4.53151,-0.6731 -1.24053,-1.0729 -2.14787,-2.46466 -2.62973,-4.01835 -0.66639,-1.62961 -0.66639,-3.45154 0,-5.08114 0.70229,-1.47272 2.03509,-2.56588 3.63958,-2.9657 z m 0,0 m 7.93016,-11.45789 0.87145,2.14077 -15.91159,6.27046 -0.87146,-2.14582 z m 0,0 m -7.75076,-16.82749 1.14826,2.42418 -8.80161,13.49742 12.48733,-5.88077 0.95346,1.96868 -15.45024,7.28771 -1.14826,-2.26729 8.73497,-13.59864 -12.47707,5.88077 -0.95345,-1.96869 z m 0,0 m -3.50115,-6.13381 1.14826,2.0193 -14.92226,8.28469 -1.14826,-2.01929 z m 0,0 m -16.19354,185.30496 5.96685,-10.76454 1.84029,0.997 -4.8801,8.80597 4.59303,2.45959 4.49564,-8.13793 1.74802,0.94132 -4.51102,8.13794 5.09541,2.75313 4.95699,-8.96791 1.79416,0.96662 -6.04887,10.92144 z m 0,0 m -1.5071,4.78256 c 1.46097,-0.35427 3.00394,-0.16195 4.33162,0.54657 l -1.26617,1.85736 c -0.94833,-0.39982 -2.00433,-0.47573 -3.00392,-0.21762 -1.08676,0.36438 -1.99921,1.09821 -2.57334,2.07497 -0.89707,1.23486 -1.17389,2.80373 -0.75867,4.26127 0.68178,1.80169 1.98383,3.30984 3.6857,4.25116 1.39432,1.02231 3.08595,1.56888 4.82372,1.5537 1.59936,-0.10118 3.04493,-0.98182 3.85487,-2.34826 0.90733,-1.22474 1.097,-2.82904 0.49211,-4.22586 -0.40496,-0.88565 -0.97397,-1.68527 -1.68649,-2.35837 l 1.26102,-1.84723 c 1.32255,1.0476 2.26064,2.48996 2.6656,4.11451 0.46649,1.96363 0.0462,4.02849 -1.14826,5.66821 -0.97396,1.51828 -2.50157,2.61649 -4.27008,3.06691 -2.29652,0.56682 -4.82885,-0.0658 -7.59698,-1.9029 -1.9223,-1.14883 -3.36276,-2.94038 -4.06503,-5.04066 -0.65103,-2.16101 -0.22556,-4.49408 1.14826,-6.2907 0.89707,-1.54357 2.37341,-2.68228 4.10604,-3.16306 z m 0,0 m -18.06457,21.95419 4.91086,-5.96174 c 0.66126,-0.8553 1.49171,-1.55877 2.44518,-2.07497 1.53272,-0.7389 3.36787,-0.45549 4.59303,0.71359 0.70741,0.52127 1.25078,1.23485 1.55836,2.04967 0.2358,0.76419 0.26655,1.56888 0.0923,2.34825 0.54337,-0.3239 1.16364,-0.49091 1.79416,-0.48584 0.74841,0.0961 1.4507,0.40992 2.0197,0.9059 l 1.83517,1.3715 c 0.37934,0.30871 0.79456,0.57188 1.24053,0.77937 0.38446,0.22775 0.86119,0.26318 1.27642,0.0911 l 0.29731,0.23785 -1.79416,2.1762 c -0.1948,-0.0456 -0.38447,-0.11648 -0.55875,-0.21257 -0.39984,-0.22774 -0.78431,-0.47572 -1.14826,-0.74901 l -2.29652,-1.68023 c -0.67664,-0.61742 -1.65062,-0.79961 -2.51181,-0.47571 -0.59976,0.34413 -1.12263,0.80974 -1.52759,1.36138 l -3.23974,3.92219 5.7413,4.53458 -1.46096,1.77638 z m 10.83669,-0.87553 c 0.59465,-0.6478 0.97398,-1.46261 1.07649,-2.33308 -0.0154,-0.88566 -0.48184,-1.70046 -1.24053,-2.17619 -0.71765,-0.71865 -1.8044,-0.94133 -2.75273,-0.56682 -0.56388,0.28848 -1.05599,0.6984 -1.43533,1.19943 l -3.44477,4.21574 4.53665,3.6489 z m 0,0 m -21.58112,11.94373 8.67858,-8.7908 1.50197,1.44743 -7.0946,7.18648 3.72159,3.58312 6.55123,-6.64498 1.41481,1.34115 -6.5666,6.63991 4.16757,3.99811 7.21763,-7.30795 1.46095,1.40693 -8.80674,8.90719 z m 0,0 m -14.81973,12.70792 2.53745,-2.12052 13.1076,7.77355 -5.56701,-14.02882 2.51181,-2.1104 11.05712,12.92049 -1.6865,1.41705 -6.53073,-7.62678 -1.14826,-1.32596 c -0.50749,-0.62755 -1.05598,-1.28546 -1.65575,-1.97374 l 5.59264,14.0187 -1.75827,1.46259 -13.08709,-7.74823 0.33321,0.39474 1.26103,1.42718 c 0.57414,0.63767 0.99961,1.13365 1.25592,1.40693 l 6.53072,7.62678 -1.70188,1.40693 z m 0,0 m -15.91159,10.79997 2.75787,-1.83711 12.19001,9.12481 -4.06505,-14.53998 2.74249,-1.82697 9.58592,14.00857 -1.83516,1.22474 -5.65929,-8.26446 c -0.19477,-0.28341 -0.51774,-0.76926 -0.95345,-1.43729 -0.43572,-0.66805 -0.91759,-1.38163 -1.43533,-2.14076 l 4.02916,14.52478 -1.90693,1.27029 -12.16437,-9.06407 0.28707,0.43018 1.14826,1.53851 c 0.50236,0.69335 0.86119,1.2045 1.08674,1.53345 l 5.65927,8.26952 -1.83516,1.22474 z m 0,0 m -1.77878,3.78556 c 1.85567,0.92108 3.34738,2.41911 4.25985,4.26128 1.15337,1.94844 1.60961,4.22079 1.29692,6.4577 -0.52801,2.33308 -2.02484,4.34227 -4.12144,5.53664 -2.10173,1.18931 -4.61355,1.45753 -6.92032,0.72876 -2.08634,-0.93626 -3.77797,-2.55575 -4.78783,-4.59023 -1.05085,-1.81181 -1.50195,-3.90196 -1.28666,-5.98199 0.30756,-2.53551 1.9223,-4.73701 4.27008,-5.81498 2.17862,-1.37657 4.91086,-1.59924 7.2894,-0.59718 z m 3.36276,10.44571 c 0.10761,-1.75108 -0.28707,-3.49709 -1.14826,-5.03055 -0.75355,-1.57394 -2.07096,-2.81892 -3.69595,-3.50214 -1.53785,-0.57694 -3.26024,-0.42006 -4.66994,0.42006 -1.47634,0.71358 -2.55795,2.03448 -2.96291,3.60336 -0.35884,1.89276 0.0205,3.85134 1.06624,5.4759 0.75866,1.51826 2.00432,2.74806 3.53704,3.50214 1.65575,0.6731 3.54218,0.49091 5.03902,-0.47572 1.59936,-0.71359 2.68097,-2.22175 2.83476,-3.94751 z m 0,0 m -20.66354,-3.00112 c 1.41995,0.50608 2.59897,1.50309 3.32175,2.8088 l -2.09147,0.85023 c -0.57927,-0.84011 -1.41994,-1.47779 -2.39905,-1.81181 -1.10212,-0.28847 -2.27089,-0.17713 -3.29612,0.31884 -1.44044,0.53646 -2.55282,1.69541 -3.01931,3.14788 -0.4511,1.87253 -0.20505,3.84629 0.69204,5.55182 0.58952,1.60937 1.69676,2.98594 3.14234,3.92219 1.38918,0.79457 3.08594,0.85023 4.5264,0.14676 1.44557,-0.52126 2.50668,-1.75613 2.78863,-3.24909 0.15377,-0.96158 0.12296,-1.94339 -0.0923,-2.88978 l 2.08635,-0.86541 c 0.51262,1.59925 0.48187,3.31995 -0.0871,4.89895 -0.71766,1.89278 -2.24013,3.38069 -4.16757,4.06898 -1.66086,0.73888 -3.54729,0.82493 -5.26968,0.23785 -2.24526,-0.75914 -4.00354,-2.66709 -5.27995,-5.734 -0.95346,-2.00918 -1.14826,-4.28153 -0.56388,-6.41722 0.65102,-2.15596 2.30165,-3.87665 4.44439,-4.64591 1.64037,-0.79963 3.53704,-0.92109 5.26456,-0.33908 z m 0,0 m 85.10961,-275.40422 1.8249,2.74301 -9.38087,11.92349 14.7736,-3.83111 1.81465,2.72276 -14.29173,9.30194 -1.22515,-1.82192 8.44792,-5.51133 1.45583,-0.91602 2.18374,-1.3968 -14.75309,3.81085 -1.26104,-1.89277 9.40138,-11.89819 -0.43573,0.28341 -1.58398,1.06279 -1.56347,1.06785 -8.43766,5.48096 -1.2149,-1.82193 z m 0,0 m -11.22629,-13.93773 4.31622,5.24816 c 1.39432,1.53851 1.93768,3.65397 1.45584,5.66821 -0.55364,1.96869 -1.76853,3.69952 -3.44479,4.90401 -1.30204,1.06785 -2.82451,1.84217 -4.46489,2.26728 -2.54769,0.77432 -5.31582,-0.13665 -6.88442,-2.26728 l -4.29573,-5.23297 z m -7.74051,14.32741 c 0.39985,0.49597 0.86633,0.93121 1.38921,1.29053 0.81505,0.49091 1.77364,0.69335 2.72197,0.57696 0.94321,-0.1316 1.85055,-0.44537 2.67587,-0.91604 0.53312,-0.27834 1.03548,-0.61236 1.50196,-0.98687 1.41481,-1.00206 2.48105,-2.40393 3.05519,-4.02342 0.36396,-1.4879 -0.0718,-3.05173 -1.14826,-4.14994 l -2.57333,-3.03654 -10.21644,8.18348 z m 0,0 m -0.73303,-23.15362 1.83517,1.85735 -7.93017,16.19488 -1.77878,-1.80168 2.45543,-4.79267 -4.69556,-4.75219 -4.96725,2.26729 -1.65575,-1.68528 z m -4.59304,9.68656 3.58319,-7.07008 -7.33554,3.26428 z m 0,0 m -9.16045,-20.69403 c 0.24606,1.46767 -0.0718,2.97075 -0.89195,4.21573 l -1.76852,-1.38162 c 1.138,-1.95351 0.52286,-4.44853 -1.39944,-5.66821 -1.15851,-1.00206 -2.72199,-1.41706 -4.23933,-1.12859 -1.87618,0.51116 -3.50117,1.67011 -4.58791,3.25923 -1.16878,1.30065 -1.87105,2.94038 -1.99921,4.67121 -0.0358,1.579 0.73304,3.07197 2.04533,3.97787 1.14826,1.01218 2.76301,1.33608 4.22396,0.85023 0.92783,-0.31377 1.78902,-0.80468 2.52207,-1.45248 l 1.80442,1.37151 c -1.1739,1.20955 -2.71175,2.00411 -4.38799,2.26728 -2.02997,0.28847 -4.08555,-0.31377 -5.62341,-1.65491 -1.45582,-1.08304 -2.4298,-2.67722 -2.73224,-4.4536 -0.37934,-2.26729 0.47161,-4.75725 2.56308,-7.31806 1.32256,-1.79156 3.24486,-3.05173 5.4286,-3.573 2.22988,-0.46561 4.55203,0.13664 6.26417,1.61949 1.48146,1.0476 2.48106,2.63167 2.77837,4.39792 z m 0,0 m -14.49678,-12.429576 1.92744,1.325957 -9.81146,13.856749 -1.91719,-1.32595 z m 0,0 m -15.59888,-9.737178 6.65886,3.977871 c 0.94835,0.526334 1.77366,1.244981 2.41955,2.110396 0.9791,1.396809 0.94834,3.254161 -0.0666,4.620604 -0.7843,1.538515 -2.44518,2.439353 -4.17782,2.267283 0.38958,0.48585 0.6459,1.06279 0.73303,1.68022 0.005,0.74901 -0.21529,1.47778 -0.63051,2.10534 l -1.14826,1.98387 c -0.25118,0.415 -0.45111,0.8553 -0.61001,1.31584 -0.17429,0.40993 -0.14353,0.88566 0.0922,1.27028 l -0.19478,0.32896 -2.43492,-1.45248 c 0.0105,-0.20243 0.0513,-0.39981 0.12807,-0.59213 0.17942,-0.40993 0.38446,-0.80974 0.61003,-1.19943 l 1.3738,-2.47984 c 0.528,-0.74901 0.57926,-1.72577 0.12821,-2.51527 -0.42547,-0.541516 -0.95859,-0.986875 -1.57373,-1.305712 l -4.38286,-2.616486 -3.7985,6.199608 -1.98894,-1.13365 z m 2.38878,10.47101 c 0.72792,0.495968 1.59423,0.754074 2.47594,0.73889 0.88683,-0.146765 1.64549,-0.713587 2.0197,-1.51827 0.62027,-0.804684 0.69203,-1.892777 0.18453,-2.768314 -0.36907,-0.495968 -0.84581,-0.900841 -1.39943,-1.189311 l -4.71607,-2.818924 -3.02956,4.93944 z m 0,0 m -17.84928,-18.133216 11.18015,5.364557 -0.92271,1.857351 -9.18095,-4.387802 -2.29651,4.615543 8.46328,4.053783 -0.87657,1.771317 -8.44791,-4.058846 -2.53746,5.157061 9.29886,4.463716 -0.89196,1.80168 -11.33393,-5.440469 z m 0,0 m -17.39306,-6.77655 2.19399,0.819867 -2.4913,6.538686 8.22748,3.066907 2.51694,-6.538686 2.18888,0.819867 -6.04887,15.86593 -2.18887,-0.819866 2.81939,-7.399041 -8.25312,-3.117516 -2.83477,7.404102 -2.18887,-0.819868 z m 0,0 m -15.95773,-4.554813 7.42781,2.064849 c 1.3123,0.293532 2.46055,1.083033 3.19359,2.196431 0.67666,1.153888 0.81506,2.545634 0.37934,3.810861 -0.3332,1.214617 -1.09188,2.277406 -2.14786,2.990993 -1.22516,0.743953 -2.72712,0.89578 -4.0753,0.404872 l -5.14153,-1.472722 -1.93257,6.903072 -2.29139,-0.612371 z m 8.03781,4.625665 c -0.56386,-0.435237 -1.22001,-0.738891 -1.91717,-0.89578 l -4.41875,-1.224737 -1.59936,5.668211 4.4905,1.189311 c 0.84582,0.263168 1.75828,0.263168 2.6041,0 0.8253,-0.359323 1.41481,-1.108336 1.56347,-1.983873 0.34858,-0.976755 0.0615,-2.064849 -0.72279,-2.753132 z m 0,0 m -25.70254,3.547694 c -0.13841,0.809745 -0.0615,1.639733 0.22041,2.414051 0.68179,1.341139 2.02483,2.236919 3.54731,2.353319 0.75867,0.136645 1.53272,0.136645 2.29138,0 1.22516,-0.06579 2.24014,-0.95651 2.44518,-2.150883 0.20505,-0.72877 0.0307,-1.513211 -0.46647,-2.085093 -0.73305,-0.617429 -1.56348,-1.113398 -2.46056,-1.4626 l -2.12223,-0.916024 c -1.03548,-0.39475 -2.00433,-0.956511 -2.8604,-1.654915 -0.90733,-0.885658 -1.27128,-2.181249 -0.96371,-3.400926 0.2153,-1.391749 1.02011,-2.63167 2.21962,-3.400927 1.38406,-0.799623 3.02957,-1.027364 4.58792,-0.642735 1.5686,0.242923 3.01417,0.96157 4.14706,2.059787 1.07136,1.189313 1.46095,2.829044 1.03036,4.362498 l -2.13249,-0.384628 c 0.082,-0.738892 -0.0307,-1.487905 -0.32295,-2.176188 -0.67665,-1.108338 -1.85054,-1.826986 -3.15771,-1.928205 -0.98423,-0.273289 -2.04021,-0.156888 -2.93729,0.32896 -0.63564,0.409932 -1.07136,1.057728 -1.20465,1.791558 -0.18454,0.72877 0.0769,1.498027 0.66641,1.973753 0.87144,0.576943 1.80953,1.06279 2.78863,1.447418 l 2.19399,0.956511 c 0.86119,0.344141 1.64037,0.860354 2.2914,1.51827 0.90221,0.991938 1.24564,2.363442 0.9227,3.659033 -0.10761,1.619489 -1.12263,3.046665 -2.62972,3.69446 -1.54809,0.546578 -3.22435,0.668039 -4.83396,0.33908 -1.7634,-0.212557 -3.37815,-1.098216 -4.50077,-2.459598 -0.96371,-1.305714 -1.29179,-2.960629 -0.90733,-4.53457 z m 0,0 m -5.2902,-9.929492 c 1.02524,1.781438 1.42507,3.841226 1.14826,5.870647 -0.12296,2.252102 -0.99961,4.397925 -2.5067,6.098388 -1.73776,1.659976 -4.10606,2.530453 -6.5256,2.383686 -2.41442,-0.141706 -4.66479,-1.275348 -6.1924,-3.132698 -1.2149,-1.918083 -1.7275,-4.190429 -1.44557,-6.437469 0.14354,-2.080031 0.94834,-4.063905 2.29651,-5.668211 1.67114,-1.953509 4.24447,-2.920142 6.80755,-2.545635 2.58358,0.0253 4.98263,1.310773 6.41795,3.431292 z m -2.99881,10.551982 c 1.05599,-1.417052 1.68139,-3.097271 1.80441,-4.853405 0.24093,-1.725767 -0.16916,-3.47684 -1.14826,-4.92932 -0.97397,-1.310774 -2.49643,-2.120518 -4.14707,-2.18631 -1.6301,-0.197374 -3.26535,0.323898 -4.47513,1.417053 -1.3533,1.386688 -2.11709,3.228856 -2.14785,5.15706 -0.21019,1.68022 0.14352,3.380684 1.00985,4.838224 1.00985,1.4626 2.68609,2.338136 4.48025,2.333076 1.73778,0.273289 3.48579,-0.409934 4.56741,-1.776378 z m 0,0 M 235.37327,62.708871 h 3.32688 l 5.15179,14.221138 4.66479,-14.367904 h 3.29101 l 0.2768,16.908477 h -2.2145 l -0.15891,-9.975041 c 0,-0.349201 0,-0.916023 0,-1.720705 0,-0.804684 0,-1.654916 0,-2.560818 l -4.59303,14.337538 h -2.29652 l -5.16717,-14.180649 v 0.521272 c 0,0.409933 0,1.042547 0,1.892778 0,0.850231 0.0718,1.4626 0.0718,1.872534 l 0.1589,9.969979 h -2.2145 z m 0,0 m -2.89627,0.22774 0.22042,2.004119 -5.7413,0.612369 1.61987,14.777837 -2.29652,0.247983 -1.60449,-14.79808 -5.74129,0.597186 -0.25119,-1.91302 z m 0,0 m -22.46283,3.011238 2.57333,-0.475725 9.18094,15.526851 -2.50156,0.45548 -2.6861,-4.661091 -6.60249,1.194374 -0.90733,5.313947 -2.2914,0.420055 z m 5.60289,9.069138 -3.95227,-6.877767 -1.32768,7.839339 z m 0,0 m -34.88351,-1.336078 6.51534,-2.054726 c 1.97358,-0.72877 4.18808,-0.455482 5.9156,0.738891 1.65062,1.224739 2.84502,2.960628 3.38325,4.92932 0.5485,1.589123 0.73305,3.274405 0.54338,4.939442 -0.19992,2.631669 -2.07609,4.848344 -4.6648,5.511323 l -6.49485,2.049665 z m 10.68292,12.318238 c 0.61514,-0.177132 1.19438,-0.44536 1.72239,-0.794563 0.75867,-0.561758 1.29691,-1.361382 1.53784,-2.267284 0.22556,-0.910961 0.26143,-1.857351 0.11784,-2.788557 -0.082,-0.587064 -0.21016,-1.174129 -0.37933,-1.746012 -0.43058,-1.659976 -1.36869,-3.152942 -2.6861,-4.271401 -1.26617,-0.875538 -2.90141,-1.047607 -4.32648,-0.465604 l -3.83436,1.214616 3.99327,12.363787 z m 0,0 m -27.97345,-5.283583 2.50156,-1.062789 13.3075,9.246269 -5.44396,-12.5561 2.03508,-0.860354 6.73577,15.547094 -2.39904,1.00712 -13.40491,-9.180479 5.43885,12.54598 -2.04533,0.865414 z m 0,0 m -10.85721,5.577115 2.29652,-1.23486 13.68172,11.953853 -2.29652,1.189311 -4.00865,-3.613484 -5.91046,3.163064 0.8048,5.324067 -2.09147,1.13365 z m 8.19674,6.968863 -5.9156,-5.339252 1.14826,7.864643 z m 0,0 m -23.10873,3.375622 c 1.49171,0.172072 2.87065,0.885659 3.87025,1.999058 l -1.84028,1.300651 c -1.59936,-1.599245 -4.18295,-1.68528 -5.88997,-0.192313 -1.27641,0.84517 -2.0966,2.21668 -2.22475,3.72989 -0.005,1.92314 0.68177,3.78555 1.93769,5.25828 0.94834,1.43729 2.33752,2.53551 3.96253,3.12763 1.53783,0.45548 3.20383,0.13158 4.44437,-0.87554 1.29179,-0.82493 2.04533,-2.26222 1.97357,-3.78555 -0.0666,-0.96663 -0.31783,-1.91302 -0.74841,-2.7835 l 1.84028,-1.30571 c 0.86119,1.44236 1.22516,3.12258 1.03036,4.78255 -0.27169,2.00412 -1.41995,3.79062 -3.13208,4.8939 -1.45584,1.09315 -3.27049,1.59418 -5.08515,1.40693 -2.29652,-0.27329 -4.51102,-1.74602 -6.45384,-4.40805 -1.3738,-1.74601 -2.08634,-3.91714 -2.00945,-6.12875 0.14866,-2.24704 1.36355,-4.296709 3.27561,-5.521448 1.41483,-1.138703 3.22948,-1.680219 5.04927,-1.498028 z m 0,0 m -16.03462,10.430526 1.80954,-1.4626 10.87257,13.06724 -1.81466,1.4626 z m 0,0 m -13.9124,12.40933 1.98383,-1.84723 15.69117,4.20055 -9.46803,-9.96998 1.61475,-1.49803 11.72353,12.34355 -1.90694,1.75613 -15.77319,-4.10439 9.44752,9.94973 -1.61988,1.49803 z m 0,0 m -8.289,8.89707 1.73266,-1.93833 16.88554,6.65003 -1.68649,1.88265 -4.98263,-2.05473 -4.45463,4.96475 2.59383,4.78256 -1.58398,1.70046 z m 10.09853,3.79567 -7.40216,-3.02641 3.83435,6.9891 z m 0,0 m -23.713604,13.18871 7.412428,-9.84851 1.691636,1.23486 -6.074499,8.06202 4.177816,3.05677 5.602883,-7.46988 1.59425,1.13364 -5.61316,7.43447 4.65968,3.40093 6.15652,-8.10252 1.63013,1.21462 -7.52008,9.96999 z m 0,0 m -2.639971,6.09839 c 1.445587,-0.42511 2.993669,-0.2986 4.35211,0.34921 l -1.148259,1.90796 c -0.968846,-0.36439 -2.035085,-0.38969 -3.019304,-0.081 -1.066247,0.3998 -1.947946,1.16906 -2.481065,2.16606 -0.84582,1.26523 -1.061112,2.84928 -0.574134,4.29164 0.743301,1.77132 2.096607,3.22886 3.824126,4.1044 1.435326,0.96157 3.152583,1.44235 4.890348,1.36138 1.599366,-0.15183 3.019303,-1.09316 3.772858,-2.49502 0.866319,-1.26017 0.989353,-2.87965 0.322938,-4.25117 -0.435719,-0.86035 -1.040613,-1.6296 -1.778779,-2.26728 l 1.148259,-1.9029 c 1.368686,0.98688 2.363177,2.39381 2.834767,4.00319 0.53312,1.93324 0.18455,4.00316 -0.95345,5.66314 -0.897091,1.58406 -2.378541,2.7582 -4.131694,3.28958 -2.296518,0.65793 -4.854469,0.12658 -7.678979,-1.58912 -1.963327,-1.0729 -3.475538,-2.79868 -4.270098,-4.87365 -0.758665,-2.12052 -0.4511,-4.46878 0.825321,-6.33119 0.850938,-1.60431 2.311898,-2.8088 4.065035,-3.34526 z m 0,0 m -7.9763,15.70904 c 2.045331,-0.33401 4.152182,0.0104 5.977102,0.98181 2.091472,0.90591 3.813864,2.47986 4.890356,4.46879 1.132879,2.24197 1.076493,4.88883 -0.14866,7.08021 -0.917578,2.15087 -2.778377,3.77037 -5.04927,4.39792 -2.250377,0.45548 -4.587909,0.1214 -6.61274,-0.94134 -1.922304,-0.86035 -3.526797,-2.28752 -4.593036,-4.08921 -1.26104,-2.23185 -1.26104,-4.95461 0,-7.18647 1.302046,-2.68228 3.147465,-4.25116 5.536248,-4.71171 z m 8.940019,6.50326 c -0.968838,-1.47777 -2.342659,-2.65697 -3.962516,-3.40092 -1.548106,-0.83505 -3.352511,-1.07291 -5.069768,-0.67816 -1.589113,0.42511 -2.891159,1.54357 -3.537059,3.03655 -0.7638,1.44235 -0.850931,3.13775 -0.240926,4.6459 0.835566,1.73589 2.306771,3.09728 4.121438,3.81086 1.517346,0.77938 3.255102,1.05267 4.946742,0.77938 1.742884,-0.42006 3.162829,-1.65998 3.78823,-3.31996 0.891945,-1.50814 0.871446,-3.38067 -0.04622,-4.87365 z m 0,0 m -24.815733,25.24884 0.733039,-2.161 14.301982,4.73701 2.732253,-8.03671 1.937684,0.64779 -3.439658,10.19772 z m 0,0 m -3.38839,12.50044 0.620267,-2.51527 18.100473,-1.97374 -0.594641,2.43935 -5.408095,0.52127 -1.583986,6.43746 4.593044,2.98088 -0.56388,2.26728 z m 10.718798,-1.33608 -7.966046,0.76926 6.705014,4.34225 z m 0,0 m -14.860734,24.21643 0.399842,-2.66204 14.922244,-6.35649 -13.681715,-1.98388 0.317823,-2.16607 16.947076,2.4596 -0.379332,2.5507 -14.922248,6.4729 13.681723,1.99399 -0.333208,2.12052 z m 0,0 m 1.891554,5.88583 c 1.758272,-1.09316 3.824113,-1.58407 5.889951,-1.40693 2.2914,0.0404 4.500771,0.83504 6.27955,2.26728 1.748018,1.64985 2.716864,3.9475 2.670723,6.33624 -0.04622,2.38875 -1.102118,4.64592 -2.911657,6.22998 -1.891552,1.29053 -4.177816,1.88772 -6.464081,1.69034 -2.111979,-0.0456 -4.157317,-0.73889 -5.854075,-1.98388 -2.045337,-1.56887 -3.121831,-4.07403 -2.845017,-6.61965 0.13328,-3.00113 1.214899,-5.17225 3.234606,-6.51338 z m 10.800815,2.53551 c -1.476332,-0.98688 -3.208978,-1.53851 -4.992876,-1.58407 -1.753153,-0.17206 -3.51142,0.2986 -4.936493,1.32597 -1.291791,1.00711 -2.045337,2.54057 -2.040211,4.17018 -0.138405,1.61442 0.451102,3.20861 1.604488,4.3625 1.460955,1.27027 3.357633,1.95351 5.305577,1.9029 1.707004,0.13664 3.419143,-0.28341 4.864722,-1.18931 1.440452,-1.06281 2.255512,-2.7582 2.168365,-4.53458 0.220427,-1.73082 -0.538246,-3.43635 -1.973572,-4.45359 z m 0,0 m -13.738105,18.31541 v -2.26729 l 17.116242,-0.33908 v 2.26729 z m 0,0 m 0,3.49202 2.029959,-0.16195 0.445976,5.66821 15.040146,-1.13364 0.184548,2.26729 -15.040152,1.13364 0.451102,5.66314 -2.035085,0.16195 z m 0,0 m 2.388791,22.28821 -0.394714,-2.56081 15.947478,-8.62378 0.389594,2.48491 -4.798091,2.50009 1.020106,6.56397 5.351717,1.04255 0.353699,2.32296 z m 9.411629,-5.26839 -7.084354,3.70457 7.899414,1.54358 z m 0,0 m -4.41875,27.97161 -0.666402,-2.62155 11.364693,-11.47813 -13.420282,3.2997 -0.492111,-2.12051 16.619004,-4.09426 0.63052,2.50514 -11.318557,11.59453 13.410029,-3.29465 0.538254,2.12558 z m 0,0 m 226.217361,119.46768 11.54924,-2.78351 0.49211,2.01425 -9.2886,2.26729 1.24054,4.98497 8.16084,-1.98387 0.48185,1.96363 -8.16085,1.97376 1.8608,7.46484 -2.29652,0.54657 z m 0,0 m -3.76773,3.25416 c 1.43533,1.48284 2.33242,3.3908 2.54771,5.43033 0.4306,2.21669 0.0923,4.50927 -0.96371,6.5134 -1.2918,2.02436 -3.37814,3.42116 -5.76181,3.85134 -2.38367,0.43017 -4.83909,-0.1417 -6.77166,-1.58406 -1.64549,-1.579 -2.69124,-3.67421 -2.95267,-5.92631 -0.36908,-2.05473 -0.082,-4.17019 0.83045,-6.05285 1.14826,-2.28753 3.42427,-3.82604 6.00273,-4.05378 2.51693,-0.58201 5.16204,0.10119 7.06896,1.82193 z m -0.38958,10.96191 c 0.68691,-1.62455 0.89708,-3.40598 0.59976,-5.13682 -0.17429,-1.73588 -0.99447,-3.35032 -2.29652,-4.53456 -1.27641,-1.04761 -2.96805,-1.46767 -4.59304,-1.12858 -1.63012,0.20243 -3.09107,1.08302 -4.01891,2.42416 -0.98422,1.65998 -1.29178,3.62867 -0.86119,5.50627 0.20505,1.68023 0.95859,3.25416 2.14786,4.47889 1.32768,1.1792 3.16285,1.63468 4.90061,1.20957 1.8044,-0.10119 3.39351,-1.19438 4.12143,-2.81893 z m 0,0 M 255.80614,432.6963 v 2.01425 l -5.7413,0.0911 0.24094,14.89423 h -2.29652 l -0.24094,-14.85881 -5.7413,0.0911 v -2.00919 z m 0,0 m -29.12683,-0.8401 2.73224,0.19231 7.50982,14.24644 1.00985,-13.59865 2.20426,0.15689 -1.25079,16.86293 -2.59384,-0.1822 -7.63284,-14.23124 -1.00986,13.59864 -2.21963,-0.15689 z m 0,0 m -15.02477,-2.32296 12.27202,1.98387 -0.34346,2.04967 -10.03189,-1.62962 -0.84068,5.06597 9.27834,1.50309 -0.32295,1.92821 -9.27321,-1.49297 -0.94322,5.66316 10.20617,1.65491 -0.33319,1.98387 -12.43094,-2.01929 z m 0,0 m -19.05393,-4.68134 3.2141,0.85024 1.0201,15.06124 8.46329,-12.62189 3.17822,0.83506 -4.40849,16.33152 -2.13249,-0.55669 2.60409,-9.64103 c 0.0923,-0.33908 0.24093,-0.88565 0.47161,-1.65491 0.22555,-0.77432 0.44596,-1.58913 0.68691,-2.46972 l -8.43767,12.53079 -2.21449,-0.57694 -1.056,-15.03594 -0.1384,0.49596 c -0.1025,0.39476 -0.25118,1.00713 -0.46136,1.83712 -0.20504,0.82493 -0.34345,1.4373 -0.44597,1.8118 l -2.5682,9.64608 -2.13761,-0.55671 z m 0,0 m -1.49171,-0.57694 -0.7023,1.88265 -5.41834,-1.97374 -5.2338,13.96303 -2.20425,-0.80469 5.24919,-13.96303 -5.41836,-1.9282 0.70742,-1.8776 z m 0,0 m -26.32282,-10.88095 7.04846,3.27442 c 0.99961,0.42005 1.89668,1.0476 2.62972,1.8371 1.1175,1.29559 1.28667,3.14283 0.42548,4.61554 -0.63566,1.58913 -2.19401,2.63674 -3.92665,2.63674 0.44598,0.44029 0.75867,0.99699 0.90733,1.59925 0.082,0.74394 -0.0564,1.49802 -0.40496,2.16606 l -0.90734,2.08509 c -0.20505,0.4403 -0.35882,0.89578 -0.46646,1.3715 -0.12822,0.42512 -0.0409,0.89073 0.22553,1.24499 l -0.1589,0.33908 -2.58358,-1.18931 c 0.005,-0.19738 0.0307,-0.39476 0.082,-0.58707 0.13328,-0.43018 0.29218,-0.85024 0.47161,-1.26016 l 1.08674,-2.60637 c 0.44597,-0.79962 0.38959,-1.78143 -0.14865,-2.52538 -0.48187,-0.49092 -1.05599,-0.87554 -1.69676,-1.13365 l -4.59304,-2.15594 -3.12183,6.56398 -2.10173,-0.97674 z m 3.44478,10.20279 c 0.77917,0.40993 1.67111,0.57694 2.54769,0.46054 0.8612,-0.22774 1.55323,-0.87047 1.83517,-1.71058 0.53312,-0.86542 0.48698,-1.95857 -0.11273,-2.77338 -0.4101,-0.4909 -0.92783,-0.88059 -1.51734,-1.13364 l -4.99288,-2.26729 -2.49131,5.23299 z m 0,0 m -12.75389,-15.42563 2.29652,1.31584 -3.28587,17.68785 -2.18887,-1.27029 1.04574,-5.25827 -5.7413,-3.39588 -4.18808,3.39588 -2.05559,-1.18932 z m -1.77878,10.5368 1.53785,-7.76342 -6.18728,5.08114 z m 0,0 m -13.7176,-20.61305 6.30005,4.30683 c 1.138,0.71358 1.96333,1.82697 2.29652,3.11751 0.25631,1.31078 -0.082,2.66709 -0.91757,3.71469 -0.70742,1.05267 -1.78392,1.81181 -3.01932,2.13066 -1.40457,0.30871 -2.87065,-0.0404 -3.98303,-0.93628 l -4.39823,-3.00617 -4.11631,5.87065 -1.90693,-1.30066 z m 6.04887,6.96885 c -0.38959,-0.59212 -0.90733,-1.09821 -1.51734,-1.47271 l -3.7626,-2.53553 -3.37301,4.81293 3.7626,2.576 c 0.70741,0.5314 1.55835,0.84011 2.44517,0.8806 0.89708,-0.0658 1.70189,-0.57695 2.13761,-1.35633 0.70228,-0.80974 0.82531,-1.96869 0.30757,-2.90496 z m 0,0 m -18.05432,-16.59976 9.59616,7.82922 -1.34305,1.59925 -7.84302,-6.40205 -3.32689,3.89689 7.23302,5.92632 -1.26617,1.50816 -7.22788,-5.88078 -3.71134,4.41818 7.95581,6.49314 -1.29692,1.54356 -9.69871,-7.9355 z m 0,0 m -12.12339,-11.61984 4.85448,4.76233 c 1.56861,1.39173 2.34266,3.45658 2.06585,5.51638 -0.33833,2.01424 -1.34306,3.86146 -2.85528,5.24815 -1.16875,1.2045 -2.58871,2.14075 -4.15731,2.75313 -2.45543,1.03242 -5.30558,0.41499 -7.0946,-1.53851 l -4.83396,-4.74713 z m -6.14112,15.05113 c 0.44597,0.45043 0.95346,0.83505 1.51221,1.13365 0.86632,0.40993 1.85055,0.51114 2.77838,0.28341 0.92784,-0.22775 1.79416,-0.62755 2.56307,-1.18932 0.487,-0.33908 0.94835,-0.71864 1.37382,-1.13364 1.30205,-1.14376 2.20937,-2.65697 2.60921,-4.32707 0.19992,-1.51321 -0.39984,-3.02135 -1.58397,-4.00317 l -2.86041,-2.79868 -9.26296,9.2159 z m 0,0 m -13.3844,-15.44587 1.5481,1.84723 -1.96333,1.59924 -1.54809,-1.85735 z m 0,0 m -6.751153,-13.74542 c -0.671526,0.48585 -1.199519,1.14377 -1.527592,1.90291 -0.456234,1.43223 -0.107604,3.00111 0.917571,4.11451 0.456234,0.62755 1.009868,1.17412 1.645507,1.61949 0.932959,0.77938 2.286264,0.81987 3.270491,0.10118 0.671526,-0.37957 1.102116,-1.07292 1.148256,-1.83711 -0.082,-0.94639 -0.33832,-1.8776 -0.74842,-2.74301 l -0.891949,-2.09522 c -0.48186,-0.99193 -0.794553,-2.05471 -0.922714,-3.14787 -0.03581,-1.2551 0.594641,-2.43937 1.665993,-3.11752 1.12776,-0.86541 2.57847,-1.21461 3.98304,-0.95145 1.56859,0.35933 2.93216,1.31584 3.78823,2.66204 0.96371,1.23991 1.51221,2.74301 1.56348,4.30683 -0.0513,1.59418 -0.91758,3.05172 -2.29651,3.87665 l -1.27643,-1.74601 c 0.57927,-0.48079 1.0201,-1.09316 1.28667,-1.79156 0.27681,-1.26017 -0.0718,-2.576 -0.94321,-3.53758 -0.51774,-0.87047 -1.36869,-1.50814 -2.36316,-1.76625 -0.7433,-0.13664 -1.51223,0.0353 -2.12223,0.47572 -0.64077,0.40487 -0.98936,1.1387 -0.89707,1.88266 0.23067,1.01218 0.569,2.00411 1.00985,2.94545 l 0.93295,2.18631 c 0.39984,0.85023 0.61514,1.76625 0.64078,2.69746 -0.0462,1.33608 -0.75354,2.56587 -1.89156,3.28958 -1.2354,1.05267 -2.962915,1.33608 -4.480253,0.74395 -1.507101,-0.64779 -2.804012,-1.70552 -3.742105,-3.04666 -1.122625,-1.35632 -1.676252,-3.09221 -1.537845,-4.83822 0.220427,-1.61443 1.148259,-3.05678 2.537443,-3.93232 z m 0,0 m -7.104846,-5.32912 1.307165,2.02942 -2.142731,1.35126 -1.3123,-2.02942 z m 0,0 m 5.064634,-20.27399 -9.288591,5.02042 c -0.963728,0.48585 -1.783914,1.2045 -2.3888,2.0851 -0.758665,1.21462 -0.733039,2.75313 0.05639,3.94244 0.625385,1.49296 2.076091,2.48996 3.711344,2.54057 1.014971,-0.0709 1.99919,-0.37451 2.865517,-0.89577 l 9.288607,-5.02042 1.148259,2.02941 -8.43766,4.53457 c -1.419946,0.86037 -3.014185,1.39175 -4.669938,1.56384 -2.296518,0.0759 -4.177816,-1.13365 -5.567001,-3.64893 -1.389193,-2.51527 -1.435317,-4.71676 -0.117841,-6.59941 1.040613,-1.28041 2.358039,-2.31789 3.860005,-3.03655 l 8.43766,-4.52949 z m 0,0"
     id="path4"
     style="stroke-width:0.821621" />
  <path
     fill="#ffffff"
     d="m 234.05073,154.63005 h -10.81107 c -2.94242,0 -8.85288,2.18631 -8.85288,8.30494 v 26.8734 c 0,4.14487 5.41835,8.0772 8.85288,8.0772 h 10.81107 c 3.93689,0 8.85287,-4.66615 8.85287,-8.0772 v -26.8734 c -0.0462,-2.26223 -1.00472,-4.41817 -2.6656,-5.97692 -1.666,-1.56383 -3.89075,-2.39887 -6.18727,-2.32802 z m 0,32.27843 c 0,1.57396 -1.29692,2.85436 -2.89116,2.85436 h -5.02876 c -1.59936,0 -2.89115,-1.2804 -2.89115,-2.85436 V 165.5869 c 0,-1.57393 1.29179,-2.85434 2.89115,-2.85434 h 5.02876 c 1.59424,0 2.89116,1.28041 2.89116,2.85434 z m 0,0 m 51.19494,10.97711 v -34.91517 c 0,-5.3848 5.88996,-8.34037 8.84262,-8.34037 h 10.82132 c 4.4085,0 8.82724,2.95557 8.82724,8.34037 v 34.91517 h -8.82724 v -16.34166 h -10.82132 v 16.34166 z m 19.66394,-31.73186 c 0.0256,-0.84517 -0.29732,-1.66504 -0.90221,-2.26729 -0.60488,-0.60224 -1.43019,-0.93121 -2.28627,-0.91602 h -4.6853 c -1.66087,0.14171 -2.93729,1.51321 -2.93729,3.16307 v 7.12575 h 10.82645 z m 0,0 m -55.03957,31.73186 v -34.91517 c 0,-5.3848 5.88997,-8.34037 8.83751,-8.34037 h 10.87258 c 4.40849,0 8.82724,2.95557 8.82724,8.34037 v 34.91517 h -8.82724 v -16.34166 h -10.82645 v 16.34166 z m 19.66395,-31.73186 c 0.0154,-0.84517 -0.31782,-1.65998 -0.92783,-2.25717 -0.60489,-0.59718 -1.43021,-0.92107 -2.28627,-0.90084 h -4.65968 c -1.666,0.13665 -2.94753,1.51321 -2.95266,3.15801 v 7.10551 h 10.87258 z m 0,0 m -70.77174,31.73186 h 8.82724 v -34.91517 c 0,-4.64592 -4.42901,-8.34037 -10.32921,-8.34037 h -18.14659 v 43.25554 h 8.86312 v -34.91517 h 8.13522 c 1.72238,0 2.69636,1.21461 2.69636,3.16307 z m 0,0"
     id="path5"
     style="stroke-width:0.821621" />
</svg>
