<?xml version="1.0" encoding="UTF-8" standalone="no"?>
<!-- Created with Inkscape (http://www.inkscape.org/) -->

<svg
   version="1.1"
   id="svg1"
   width="1800"
   height="1932"
   viewBox="0 0 1800 1932"
   sodipodi:docname="usfs-logo-selected.svg"
   inkscape:version="1.4.3 (0d15f75, 2025-12-25)"
   xmlns:inkscape="http://www.inkscape.org/namespaces/inkscape"
   xmlns:sodipodi="http://sodipodi.sourceforge.net/DTD/sodipodi-0.dtd"
   xmlns="http://www.w3.org/2000/svg"
   xmlns:svg="http://www.w3.org/2000/svg">
  <defs
     id="defs1" />
  <sodipodi:namedview
     id="namedview1"
     pagecolor="#ffffff"
     bordercolor="#000000"
     borderopacity="0.25"
     inkscape:showpageshadow="2"
     inkscape:pageopacity="0.0"
     inkscape:pagecheckerboard="0"
     inkscape:deskcolor="#d1d1d1"
     inkscape:zoom="0.39"
     inkscape:cx="601.28205"
     inkscape:cy="1047.4359"
     inkscape:window-width="1920"
     inkscape:window-height="1009"
     inkscape:window-x="1358"
     inkscape:window-y="-8"
     inkscape:window-maximized="1"
     inkscape:current-layer="g1" />
  <g
     inkscape:groupmode="layer"
     inkscape:label="Image"
     id="g1">
    <path
       style="fill:none;stroke:#fbde08;stroke-width:150;stroke-linecap:butt;stroke-linejoin:miter;stroke-opacity:1;stroke-dasharray:none"
       d="m 892.30769,1684.6154 35.89744,-53.8462 38.46154,-28.2051 56.41023,-20.5128 71.7949,-15.3846 141.0256,-17.9488 105.1282,-15.3846 82.0513,-25.641 53.8462,-35.8974 53.8461,-61.5385 35.8975,-61.5385 20.5128,-69.2307 v -87.1795 L 1566.6667,1094.8718 1500,841.02564 1484.6154,697.4359 l 12.8205,-84.61539 23.0769,-53.84615 43.5898,-64.10257 17.9487,-23.07692 -205.1282,-302.5641 -128.2052,35.89744 -105.1282,25.64102 -133.3333,12.82051 -112.8205,5.12821 L 764.10256,241.02564 648.71795,230.76923 502.5641,200 410.25641,166.66667 200,474.35897 l 41.02564,43.58975 30.76923,64.10256 25.64103,97.4359 v 92.30769 L 279.48718,900 l -38.46154,148.7179 -28.20513,130.7693 -10.25641,64.1025 v 53.8462 l 20.51282,64.1026 33.33334,51.282 51.28205,61.5385 30.76923,23.0769 69.23077,30.7692 166.66666,30.7693 148.71795,17.9487 69.23077,12.8205 43.58975,28.2051 30.76923,30.7692 z"
       id="path2" />
  </g>
</svg>
