<?xml version="1.0" encoding="UTF-8" standalone="no"?>
<svg
   width="150"
   height="170"
   viewBox="0 0 150 170"
   version="1.1"
   id="svg1"
   sodipodi:docname="usfws-logo-selected.svg"
   inkscape:version="1.4.3 (0d15f75, 2025-12-25)"
   xmlns:inkscape="http://www.inkscape.org/namespaces/inkscape"
   xmlns:sodipodi="http://sodipodi.sourceforge.net/DTD/sodipodi-0.dtd"
   xmlns="http://www.w3.org/2000/svg"
   xmlns:svg="http://www.w3.org/2000/svg"
   xmlns:rdf="http://www.w3.org/1999/02/22-rdf-syntax-ns#"
   xmlns:cc="http://creativecommons.org/ns#"
   xmlns:dc="http://purl.org/dc/elements/1.1/">
  <sodipodi:namedview
     id="namedview1"
     pagecolor="#ffffff"
     bordercolor="#000000"
     borderopacity="0.25"
     inkscape:showpageshadow="2"
     inkscape:pageopacity="0.0"
     inkscape:pagecheckerboard="0"
     inkscape:deskcolor="#d1d1d1"
     inkscape:zoom="3.7"
     inkscape:cx="39.864865"
     inkscape:cy="70.675676"
     inkscape:window-width="1920"
     inkscape:window-height="1009"
     inkscape:window-x="1358"
     inkscape:window-y="-8"
     inkscape:window-maximized="1"
     inkscape:current-layer="svg1" />
  <!-- Generator: sketchtool 57.1 (101010) - https://sketch.com -->
  <title
     id="title1">D7C361F2-7CB4-43F8-B8D6-48DBB00B3311@1.00x</title>
  <desc
     id="desc1">Created with sketchtool.</desc>
  <defs
     id="defs1">
    <polygon
       id="path-1"
       points="78.702166,0 78.702166,93.551632 2.7086889e-15,93.551632 0,0 " />
  </defs>
  <metadata
     id="metadata1">
    <rdf:RDF>
      <cc:Work
         rdf:about="">
        <dc:title>D7C361F2-7CB4-43F8-B8D6-48DBB00B3311@1.00x</dc:title>
      </cc:Work>
    </rdf:RDF>
  </metadata>
  <path
     style="fill:none;stroke:#fbde08;stroke-width:17.3422;stroke-linejoin:round;stroke-dasharray:none"
     d="M 21.953434,132.91876 16.192567,122.47755 11.583875,105.65558 11.391847,93.860869 V 73.171784 l 0.192028,-28.616678 1.152174,-16.048543 6.72101,-10.827931 12.481874,-5.607322 14.978249,0.193355 26.30795,-0.580068 43.014458,0.580068 9.79347,3.480407 5.18479,4.447187 3.84058,5.607322 2.1123,9.667796 0.19204,10.441221 c 3.65619,42.22181 -0.12802,36.995435 -0.19204,55.493152 l -2.30434,13.53491 c 0,0 -3.07245,8.50767 -3.07245,9.28108 0,0.77343 -7.10507,10.82794 -7.10507,10.82794 l -6.33695,7.9276 -11.52173,9.66779 -14.594201,6.57411 -15.362308,1.93355 -8.065211,1e-5 -13.24999,-2.51364 -14.78622,-6.96081 -8.641299,-6.76746 c -2.496375,-1.7402 -10.945644,-12.76149 -10.945644,-12.76149"
     id="path1"
     sodipodi:nodetypes="cccccccccccccccccccscccccccccc" />
</svg>
